<svg width="15" height="13" viewBox="0 0 15 13" fill="none" xmlns="http://www.w3.org/2000/svg">
<path d="M13.9201 8.96719H4.61543L5.08262 8.01562L12.8451 8.00156C13.1076 8.00156 13.3326 7.81406 13.3795 7.55469L14.4545 1.5375C14.4826 1.37969 14.4404 1.21719 14.3373 1.09375C14.2863 1.033 14.2228 0.984065 14.151 0.950339C14.0792 0.916613 14.001 0.898903 13.9217 0.898438L4.04668 0.865625L3.9623 0.46875C3.90918 0.215625 3.68105 0.03125 3.42168 0.03125H1.00762C0.861334 0.03125 0.721042 0.0893608 0.617604 0.192799C0.514166 0.296237 0.456055 0.436529 0.456055 0.582813C0.456055 0.729096 0.514166 0.869388 0.617604 0.972826C0.721042 1.07626 0.861334 1.13438 1.00762 1.13438H2.9748L3.34355 2.8875L4.25137 7.28281L3.08262 9.19063C3.02192 9.27254 2.98536 9.36981 2.97708 9.47143C2.9688 9.57305 2.98912 9.67496 3.03574 9.76562C3.12949 9.95156 3.31855 10.0688 3.52793 10.0688H4.50918C4.29999 10.3466 4.187 10.685 4.1873 11.0328C4.1873 11.9172 4.90605 12.6359 5.79043 12.6359C6.6748 12.6359 7.39355 11.9172 7.39355 11.0328C7.39355 10.6844 7.27793 10.3453 7.07168 10.0688H9.58887C9.37968 10.3466 9.26669 10.685 9.26699 11.0328C9.26699 11.9172 9.98574 12.6359 10.8701 12.6359C11.7545 12.6359 12.4732 11.9172 12.4732 11.0328C12.4732 10.6844 12.3576 10.3453 12.1514 10.0688H13.9217C14.2248 10.0688 14.4732 9.82187 14.4732 9.51719C14.4723 9.37106 14.4137 9.23122 14.31 9.12818C14.2064 9.02514 14.0663 8.96727 13.9201 8.96719V8.96719ZM4.27637 1.95312L13.2732 1.98281L12.392 6.91719L5.3248 6.92969L4.27637 1.95312ZM5.79043 11.5266C5.51855 11.5266 5.29668 11.3047 5.29668 11.0328C5.29668 10.7609 5.51855 10.5391 5.79043 10.5391C6.0623 10.5391 6.28418 10.7609 6.28418 11.0328C6.28418 11.1638 6.23216 11.2894 6.13956 11.3819C6.04697 11.4745 5.92138 11.5266 5.79043 11.5266V11.5266ZM10.8701 11.5266C10.5982 11.5266 10.3764 11.3047 10.3764 11.0328C10.3764 10.7609 10.5982 10.5391 10.8701 10.5391C11.142 10.5391 11.3639 10.7609 11.3639 11.0328C11.3639 11.1638 11.3118 11.2894 11.2193 11.3819C11.1267 11.4745 11.0011 11.5266 10.8701 11.5266V11.5266Z" fill="#8C8C8C"/>
</svg>
